Coordinates
version=1
nRows=7
nColumns=33
inDegrees=yes

Units are S.I. units (second, meters, Newtons, ...)
Angles are in degrees.

endheader
time	ground_thorax_rot_x	ground_thorax_rot_y	ground_thorax_rot_z	ground_thorax_tx	ground_thorax_ty	ground_thorax_tz	clav_prot_r	clav_elev_r	scapula_abduction_r	scapula_elevation_r	scapula_upward_rot_r	scapula_winging_r	shoulder_elv_r	plane_of_elev_r	axial_rot_r	elbow_flexion_r	pro_sup_r	wrist_flex_r	wrist_dev_r	clav_prot_l	clav_elev_l	scapula_abduction_l	scapula_elevation_l	scapula_upward_rot_l	scapula_winging_l	shoulder_elv_l	plane_of_elev_l	axial_rot_l	elbow_flexion_l	pro_sup_l	wrist_flex_l	wrist_dev_l
      1.08000000	      1.26902948	     -1.41411590	     -8.03664753	     -0.08293502	      1.04997541	     -0.00000809	    -12.87628877	     -7.28614152	    -13.51884642	     -0.79821232	      4.98238679	      0.58374947	     54.90158448	    -49.79027928	     62.60184186	     53.74706908	      4.77063383	     16.06306605	      9.41264173	     -7.89519446	     -4.97149631	      8.41908754	     -4.50627586	     -6.48600838	     -2.18562738	     54.26775355	    -53.07234620	    -42.11597300	     53.16918882	      2.60911828	      9.42654975	    -20.41394292
      1.09000000	      1.12128738	     -0.82354010	     -8.36521521	     -0.08273572	      1.04956323	      0.00021580	    -13.35092163	     -6.90666707	    -14.05149989	     -0.73971165	      5.75099931	      0.34494289	     53.28807297	    -50.03457083	     61.60298410	     53.56885616	      5.88941357	     16.59947587	      9.46144302	     -7.32010490	     -4.41038440	      6.92817407	     -4.39901339	     -4.79528172	     -1.48105449	     52.76295695	    -53.77407185	    -41.67971346	     53.23496855	      3.56376564	     10.04416560	    -21.41027065
      1.10000000	      1.11201045	     -0.85338830	     -8.37197353	     -0.08251107	      1.04927363	      0.00015584	    -13.31196707	     -6.71512773	    -13.98545584	     -0.59295248	      5.83004418	      0.25532144	     53.31224606	    -50.18930081	     61.71724752	     54.04307123	      5.91621892	     16.70336127	      9.45396430	     -7.31272297	     -4.17192582	      6.96343130	     -4.61359475	     -4.78610552	     -1.43266669	     52.68914735	    -53.97070991	    -41.59517371	     53.63445802	      3.57732402	      9.99147031	    -21.49601262
      1.11000000	      1.10548656	     -0.85414887	     -8.42577969	     -0.08228623	      1.04912709	      0.00022590	    -13.29367790	     -6.58615719	    -13.95358893	     -0.49563158	      5.88768237	      0.19727033	     53.30319956	    -50.30982277	     61.78657974	     54.48403261	      5.92325814	     16.77987773	      9.41660054	     -7.31283621	     -4.01838642	      6.98322418	     -4.73899381	     -4.74652338	     -1.39501554	     52.66777260	    -54.11322000	    -41.55143242	     53.89038929	      3.59923795	      9.94407736	    -21.56457461
      1.12000000	      1.11105915	     -0.79779173	     -8.49233040	     -0.08203870	      1.04901056	      0.00021949	    -13.28529916	     -6.48378280	    -13.94485516	     -0.41528425	      5.92315807	      0.15359765	     53.28818274	    -50.41028279	     61.83493952	     54.84527401	      5.91662867	     16.83817736	      9.37470122	     -7.33183038	     -3.90823927	      7.01852267	     -4.81481570	     -4.68202816	     -1.36703527	     52.67625304	    -54.20572374	    -41.50835159	     54.12426185	      3.60893349	      9.89355046	    -21.64043257
      1.13000000	      1.14733269	     -0.78361809	     -8.52364170	     -0.08179500	      1.04944620	      0.00018840	    -13.28620267	     -6.48925552	    -13.94634662	     -0.41852911	      5.91800818	      0.15432174	     53.27519108	    -50.41288072	     61.83875551	     54.86830290	      5.91567595	     16.84185827	      9.37254059	     -7.33333612	     -3.88573017	      7.03281117	     -4.84167783	     -4.70023256	     -1.36396026	     52.66512190	    -54.24398973	    -41.51598663	     54.12979035	      3.61141834	      9.89330671	    -21.64398604
      1.14000000	      1.13683417	     -0.82687026	     -8.61901721	     -0.08156708	      1.04873719	      0.00030140	    -13.34189824	     -6.34735521	    -13.99657956	     -0.34790890	      6.07759051	      0.08102883	     53.31651472	    -50.50345306	     61.78675858	     55.50026466	      5.86109486	     16.95589067	      9.25731535	     -7.36451533	     -3.69165323	      7.09841370	     -4.98112097	     -4.60211464	     -1.32253514	     52.67209982	    -54.37844774	    -41.47384870	     54.63865473	      3.60633558	      9.78413065	    -21.82785728
